<svg id="visual" viewBox="0 0 900 600" width="900" height="600" xmlns="http://www.w3.org/2000/svg" xmlns:xlink="http://www.w3.org/1999/xlink" version="1.1"><rect width="900" height="600" fill="#931F1F"></rect><g><g transform="translate(215 480)"><path d="M121.8 -40.6C137.5 8.7 115.8 69.1 72.6 100.8C29.3 132.5 -35.6 135.4 -77.2 105.4C-118.8 75.4 -137.1 12.4 -120.3 -38.3C-103.6 -89 -51.8 -127.5 0.6 -127.7C53.1 -127.9 106.2 -89.8 121.8 -40.6Z" fill="#F7760E"></path></g><g transform="translate(790 509)"><path d="M123.1 -41.7C136.3 0.8 107.9 55.2 67.2 82.3C26.5 109.5 -26.5 109.5 -63.8 83.5C-101.1 57.4 -122.6 5.3 -109.3 -37.2C-96 -79.7 -48 -112.6 3.4 -113.8C54.9 -114.9 109.8 -84.2 123.1 -41.7Z" fill="#F7760E"></path></g><g transform="translate(66 63)"><path d="M102.3 -35C114.7 5.1 94.8 54 60.4 77.7C26.1 101.4 -22.7 99.9 -58 75.3C-93.2 50.7 -115.1 3.1 -103.1 -36.2C-91.2 -75.6 -45.6 -106.7 -0.4 -106.6C44.9 -106.5 89.8 -75.1 102.3 -35Z" fill="#F7760E"></path></g><g transform="translate(814 117)"><path d="M82 -28.9C92.6 5.8 77.9 46.5 48.9 67.7C19.8 88.9 -23.7 90.7 -53.6 69.9C-83.5 49.1 -99.8 5.7 -88.6 -29.9C-77.4 -65.6 -38.7 -93.4 -1.5 -92.9C35.7 -92.4 71.5 -63.6 82 -28.9Z" fill="#F7760E"></path></g></g></svg>